<?xml version="1.0" encoding="utf-8"?>
<!-- Generator: Adobe Illustrator 25.4.2, SVG Export Plug-In . SVG Version: 6.00 Build 0)  -->
<svg version="1.1" xmlns="http://www.w3.org/2000/svg" xmlns:xlink="http://www.w3.org/1999/xlink" x="0px" y="0px"
	 viewBox="0 0 540.5 71.81" style="enable-background:new 0 0 540.5 71.81;" xml:space="preserve">
<style type="text/css">
	.st0{fill:#FFFFFF;}
	.st1{fill:#1FA74A;}
	.st2{fill:#F57E20;}
	.st3{fill:#72479B;}
	.st4{opacity:0.6;}
	.st5{fill:#66C1D6;}
	.st6{display:none;}
	.st7{display:inline;}
	.st8{opacity:0.6;fill:#64C2D6;}
	.st9{opacity:0.6;fill:#F57E20;}
	.st10{opacity:0.5;fill:#1FA74A;}
	.st11{display:inline;fill:none;stroke:#1FA74A;stroke-width:17;stroke-linecap:round;stroke-miterlimit:10;}
	.st12{display:inline;fill:none;stroke:#66C1D6;stroke-width:17;stroke-linecap:round;stroke-miterlimit:10;}
	.st13{display:inline;fill:none;stroke:#F57E20;stroke-width:17;stroke-linecap:round;stroke-miterlimit:10;}
	.st14{display:inline;fill:none;stroke:#72479B;stroke-width:17;stroke-linecap:round;stroke-miterlimit:10;}
	.st15{display:inline;opacity:0.6;fill:none;stroke:#72479B;stroke-width:17;stroke-linecap:round;stroke-miterlimit:10;}
	.st16{display:inline;opacity:0.61;fill:none;stroke:#66C1D6;stroke-width:17;stroke-linecap:round;stroke-miterlimit:10;}
	.st17{display:inline;fill:none;stroke:#000000;stroke-width:17;stroke-miterlimit:10;}
</style>
<g id="Layer_1">
	<g>
		<path class="st0" d="M241.62,52.85c1.42,1.71,2.09,3.98,2.09,5.98c0,5.69-4.65,9.58-9.58,9.58c-3.51,0-6.26-1.9-7.68-3.89
			l-12.23-17.36h-7.21v11.66c0,5.22-4.27,9.58-9.58,9.58c-5.31,0-9.58-4.36-9.58-9.58V14.35c0-6.54,3.6-10.15,10.15-10.15h23.61
			c14.79,0,22.76,9.86,22.76,21.72c0,9.67-5.03,15.36-9.67,18.21L241.62,52.85z M207.01,31.23h11.66c3.22,0,6.26-2.09,6.26-5.6
			c0-3.41-3.03-5.5-6.26-5.5h-11.66V31.23z"/>
		<path class="st0" d="M427.58,58.83v-31.3l-13.18,37.18c-0.76,2.09-2.85,3.7-5.22,3.7c-2.37,0-4.46-1.61-5.22-3.7l-13.18-37.18
			v31.3c0,5.22-4.27,9.58-9.58,9.58c-5.31,0-9.58-4.36-9.58-9.58V18.52c0-8.35,6.83-15.27,15.27-15.27
			c6.64,0,12.33,4.27,14.42,10.24l7.87,22.95l7.87-22.95c2.09-5.97,7.78-10.24,14.42-10.24c8.44,0,15.27,6.92,15.27,15.27v40.31
			l-9.58,9.58L427.58,58.83z"/>
		<path class="st0" d="M480.67,58.83V14.35c0-6.54,3.6-10.15,10.15-10.15h23.61c14.79,0,22.76,9.86,22.76,21.72
			c0,11.76-7.97,21.24-22.76,21.24h-14.6v11.66l-9.58,9.58L480.67,58.83z M511.97,20.13h-12.14v11.1h12.14
			c3.23,0,5.79-2.18,5.79-5.5C517.75,22.31,515.19,20.13,511.97,20.13z"/>
		<path class="st0" d="M147.94,68.4l-9.28-9.28V33.48c0-6.47-4.9-12.08-10.92-12.49c-0.52-0.04-1.04-0.05-1.57-0.04
			c-6.58,0.2-11.77,5.84-11.77,12.57v25.6c0,5.12-4.16,9.28-9.28,9.28c-5.12,0-9.28-4.16-9.28-9.28v-25.6
			c0-16.66,13.26-30.62,29.56-31.12l0.44-0.01c1.05-0.03,2.12,0.01,3.17,0.08c15.81,1.1,28.2,14.72,28.2,31.01v25.64L147.94,68.4z"
			/>
		<path class="st0" d="M285.47,68.21c-1.41,0-2.83-0.32-4.17-1c-4.58-2.31-6.42-7.89-4.11-12.46l21.73-43.09
			c1.58-3.13,4.78-5.1,8.28-5.1c0,0,0,0,0.01,0c3.5,0,6.7,1.97,8.28,5.09l21.54,42.6c2.31,4.57,0.48,10.16-4.09,12.47
			c-4.57,2.31-10.15,0.48-12.47-4.09l-13.25-26.2l-13.46,26.69C292.12,66.35,288.86,68.21,285.47,68.21z"/>
		<g>
			<g>
				<path class="st1" d="M34.24,68.93C16.19,68.93,1.5,54.25,1.5,36.19c0-18.05,14.69-32.74,32.74-32.74c4.69,0,8.5,3.81,8.5,8.5
					s-3.81,8.5-8.5,8.5c-8.68,0-15.74,7.06-15.74,15.74c0,8.68,7.06,15.74,15.74,15.74c4.69,0,8.5,3.81,8.5,8.5
					S38.93,68.93,34.24,68.93z"/>
			</g>
			<g>
				<path class="st2" d="M52.61,60.51c-1.96,0-3.94-0.68-5.54-2.06c-3.56-3.06-3.96-8.43-0.89-11.99c2.46-2.85,3.81-6.5,3.81-10.27
					c0-4.2-1.64-8.16-4.61-11.13c-3.32-3.32-3.32-8.7,0-12.02c3.32-3.32,8.7-3.32,12.02,0c6.18,6.18,9.59,14.41,9.59,23.15
					c0,7.84-2.82,15.43-7.93,21.36C57.37,59.51,55,60.51,52.61,60.51z"/>
			</g>
			<g>
				<path class="st3" d="M45.37,13.04c3.32-3.32,8.7-3.32,12.02,0c0,0,0.01,0.01,0.01,0.01c0,0-0.01-0.01-0.01-0.01
					c-6.18-6.18-14.41-9.59-23.15-9.59l-8.5,8.5l8.5,8.5c4.2,0,8.16,1.64,11.13,4.61c0,0,0,0,0,0c0,0,0,0,0,0
					C42.05,21.75,42.05,16.36,45.37,13.04z"/>
			</g>
			<g class="st4">
				<g>
					<path class="st3" d="M57.39,25.06c3.32-3.32,3.32-8.69,0.01-12.01c0,0-0.01-0.01-0.01-0.01c-3.32-3.32-8.7-3.32-12.02,0
						c-3.32,3.32-3.32,8.7,0,12.02c0,0,0,0,0,0c1.66,1.66,3.83,2.49,6.01,2.49C53.56,27.55,55.73,26.72,57.39,25.06z"/>
				</g>
			</g>
			<g>
				<path class="st5" d="M58.16,45.79l-11.99,0.89c-3,3.48-7.35,5.48-11.93,5.48c4.69,0,8.5,3.81,8.5,8.5s-3.81,8.5-8.5,8.5
					c9.54,0,18.58-4.15,24.81-11.38L58.16,45.79z"/>
			</g>
			<g class="st4">
				<circle class="st5" cx="34.24" cy="60.65" r="8.5"/>
			</g>
		</g>
	</g>
</g>
<g id="Layer_2" class="st6">
	<g class="st7">
		<g>
			<path class="st2" d="M184.46-15.13c-1.96,0-3.94-0.68-5.54-2.06c-3.56-3.06-3.96-8.43-0.89-11.99c2.46-2.85,3.81-6.5,3.81-10.27
				c0-4.2-1.64-8.16-4.61-11.13l0-12.02l12.02,0c6.18,6.18,9.59,14.41,9.59,23.15c0,7.84-2.82,15.43-7.93,21.36
				C189.22-16.13,186.84-15.13,184.46-15.13z"/>
		</g>
		<g>
			<path class="st1" d="M166.09-6.7c-18.05,0-32.74-14.69-32.74-32.74c0-18.05,14.69-32.74,32.74-32.74c4.69,0,8.5,3.81,8.5,8.5
				s-3.81,8.5-8.5,8.5c-8.68,0-15.74,7.06-15.74,15.74c0,8.68,7.06,15.74,15.74,15.74l8.5,8.5L166.09-6.7z"/>
		</g>
		<g class="st4">
			<path class="st3" d="M183.23-48.08c-2.18,0-4.35-0.83-6.01-2.49c-2.97-2.97-6.92-4.61-11.13-4.61l-8.5-8.5l8.5-8.5
				c8.75,0,16.97,3.41,23.15,9.59c3.32,3.32,3.32,8.7,0,12.02C187.58-48.91,185.4-48.08,183.23-48.08z"/>
		</g>
		<path class="st3" d="M177.22-62.65l12.02,0c0,0,0.01,0.01,0.01,0.01c0,0-0.01-0.01-0.01-0.01c-6.18-6.18-14.41-9.59-23.15-9.59
			l-8.5,8.5l8.5,8.5c4.21,0,8.16,1.64,11.13,4.61c0,0,0,0,0,0c0,0,0,0,0,0L177.22-62.65z"/>
		<path class="st8" d="M166.09-6.7c-4.69,0-8.5-3.81-8.5-8.5s3.81-8.5,8.5-8.5c4.59,0,8.93-2,11.93-5.47l11.99-0.89l0.89,11.99
			C184.67-10.85,175.63-6.7,166.09-6.7z"/>
		<path class="st5" d="M184.46-15.13c-1.96,0-3.94-0.68-5.54-2.06c-3.56-3.06-3.96-8.43-0.89-11.99c-3,3.48-7.35,5.47-11.93,5.47
			l8.5,8.5l-8.5,8.5c9.54,0,18.58-4.15,24.81-11.38C189.22-16.13,186.84-15.13,184.46-15.13z"/>
		<path class="st5" d="M177.82-29.02c-3.06,3.56-2.67,8.92,0.89,11.99c1.61,1.38,3.58,2.06,5.54,2.06c2.39,0,4.76-1,6.44-2.95
			l-0.89-11.99L177.82-29.02z"/>
	</g>
	<g class="st7">
		<path class="st2" d="M426.54-57.88c2.98,2.56,3.7,6.75,2.04,10.11c4.2-5.64,6.49-12.47,6.49-19.57c0-7.76-2.68-15.1-7.6-20.97
			c1.86,3.28,1.37,7.51-1.48,10.24c-1.63,1.57-3.74,2.34-5.83,2.34c-2.22,0-4.44-0.87-6.09-2.6c-0.34-0.35-0.73-0.62-1.09-0.94
			c0.18,0.22,0.33,0.45,0.54,0.66c3.02,3.01,4.69,7.01,4.69,11.27c0,3.95-1.46,7.73-4.1,10.66c-0.19,0.22-0.34,0.46-0.51,0.69
			c0.35-0.34,0.74-0.62,1.06-0.99C417.68-60.52,423.01-60.92,426.54-57.88z"/>
		<path class="st3" d="M420.12-75.73c-2.22,0-4.44-0.87-6.09-2.6c-2.99-3.12-6.99-4.85-11.29-4.9c-0.19,0.01-0.34,0.01-0.47,0.01
			c-4.59,0-8.35-3.68-8.43-8.29c-0.08-4.58,3.5-8.37,8.05-8.58c0.21-0.01,0.49-0.02,0.66-0.02c9.02,0,17.42,3.59,23.66,10.1
			c3.22,3.36,3.11,8.7-0.26,11.93C424.32-76.5,422.21-75.73,420.12-75.73z"/>
		<path class="st5" d="M402.54-34.57c-0.18,0-0.46-0.01-0.67-0.02c-4.54-0.21-8.12-4-8.04-8.57c0.08-4.66,4-8.33,8.58-8.29
			c0.09,0,0.21,0.01,0.33,0.01c4.57-0.06,8.88-2.07,11.87-5.54c3.03-3.53,8.36-3.93,11.9-0.9c3.53,3.04,3.93,8.36,0.9,11.9
			C421.16-38.73,412.1-34.57,402.54-34.57z"/>
		<path class="st9" d="M420.16-75.73c2.1,0,4.2-0.78,5.83-2.34c2.85-2.73,3.34-6.96,1.48-10.24c-0.65-0.78-1.33-1.53-2.06-2.26
			c-3.3-3.29-8.64-3.27-11.93,0.03c-3.08,3.1-3.22,7.97-0.51,11.27c0.36,0.32,0.76,0.58,1.09,0.94
			C415.72-76.6,417.93-75.73,420.16-75.73z"/>
		<path class="st1" d="M393.87-43.16c0.08-4.61,3.93-8.25,8.46-8.27c-0.04,0-0.08-0.01-0.11-0.01c-8.66-0.1-15.71-7.22-15.71-15.88
			s7.05-15.78,15.71-15.88c0.01,0,0.03,0,0.04,0c-4.57-0.03-8.3-3.69-8.38-8.28c-0.08-4.58,3.5-8.37,8.05-8.58c0.04,0,0.09,0,0.14,0
			c-0.01,0-0.02,0-0.04,0c-17.86,0.2-32.39,14.89-32.39,32.75c0,17.86,14.53,32.55,32.39,32.75c0.03,0,0.06,0,0.1,0
			c0.01,0,0.01,0,0.02,0c-0.08,0-0.16,0-0.23-0.01C397.36-34.8,393.79-38.59,393.87-43.16z"/>
		<path class="st10" d="M410.55-42.92c0.05-4.62-3.62-8.4-8.23-8.52c-4.53,0.03-8.38,3.66-8.46,8.27c-0.08,4.58,3.5,8.36,8.04,8.57
			c0.07,0,0.15,0,0.23,0.01C406.74-34.59,410.5-38.3,410.55-42.92z"/>
	</g>
	<path class="st11" d="M31.31-38.67c-13.39,0-24.24-10.85-24.24-24.24s10.85-24.24,24.24-24.24"/>
	<path class="st12" d="M49.68-47.1c-4.45,5.16-11.03,8.43-18.37,8.43"/>
	<path class="st13" d="M48.45-80.06c4.39,4.39,7.1,10.45,7.1,17.14c0,6.04-2.21,11.57-5.87,15.81"/>
	<path class="st14" d="M31.31-87.16c6.69,0,12.75,2.71,17.14,7.1"/>
	<path class="st11" d="M105.74-41.03c-13.39,0-24.24-10.85-24.24-24.24s10.85-24.24,24.24-24.24"/>
	<path class="st13" d="M122.88-82.41c4.39,4.39,7.1,10.45,7.1,17.14c0,6.04-2.21,11.57-5.87,15.81"/>
	<path class="st15" d="M105.74-89.51c6.69,0,12.75,2.71,17.14,7.1"/>
	<path class="st16" d="M124.11-49.46c-4.45,5.16-11.03,8.43-18.37,8.43"/>
	<g class="st7">
		<path class="st0" d="M217.25-90.48c-6.18-6.18-14.41-9.59-23.15-9.59c4.69,0,8.5,3.81,8.5,8.5s-3.81,8.5-8.5,8.5
			c4.2,0,8.16,1.64,11.13,4.61c1.66,1.66,3.83,2.49,6.01,2.49s4.35-0.83,6.01-2.49C220.57-81.78,220.57-87.16,217.25-90.48z"/>
		<circle class="st0" cx="194.1" cy="-91.57" r="8.5"/>
	</g>
	<g class="st7">
		<path class="st2" d="M212.47-43.02c-1.96,0-3.94-0.68-5.54-2.06c-3.56-3.06-3.96-8.43-0.89-11.99c2.46-2.85,3.81-6.5,3.81-10.26
			c0-4.2-1.64-8.16-4.61-11.13c-3.32-3.32-3.32-8.7,0-12.02c3.32-3.32,8.7-3.32,12.02,0c6.18,6.18,9.59,14.41,9.59,23.15
			c0,7.84-2.82,15.43-7.93,21.36C217.23-44.02,214.86-43.02,212.47-43.02z"/>
	</g>
</g>
<g id="Layer_3" class="st6">
	<circle class="st17" cx="34.08" cy="-65.27" r="24.24"/>
</g>
</svg>
