<?xml version="1.0" encoding="utf-8"?>
<!-- Generator: Adobe Illustrator 25.4.2, SVG Export Plug-In . SVG Version: 6.00 Build 0)  -->
<svg version="1.1" id="Layer_1" xmlns="http://www.w3.org/2000/svg" xmlns:xlink="http://www.w3.org/1999/xlink" x="0px" y="0px"
	 viewBox="0 0 24 24" style="enable-background:new 0 0 24 24;" xml:space="preserve">
<style type="text/css">
	.st0{fill:#FFFFFF;}
</style>
<g>
	<path id="XMLID_4_" class="st0" d="M8.37,21.62c-0.08-0.08-0.13-0.18-0.16-0.31C6.83,12.79,7.36,8.03,9.83,6.77
		c1.72-0.88,3.71,0.19,5.63,1.23c1.73,0.93,3.52,1.89,4.83,1.26c2.52-1.2,2.46-3.96,2.15-8.38c-0.02-0.3,0.21-0.57,0.52-0.59
		c0.3-0.02,0.57,0.21,0.59,0.52c0.28,4.05,0.56,7.87-2.78,9.45c-1.82,0.87-3.86-0.23-5.84-1.29c-1.75-0.94-3.4-1.83-4.6-1.21
		C8.99,8.45,7.72,11.33,9.3,21.15c0.05,0.3-0.15,0.58-0.46,0.64C8.66,21.8,8.49,21.74,8.37,21.62z"/>
	<path id="XMLID_6_" class="st0" d="M1.4,23.54c-0.08-0.08-0.13-0.18-0.16-0.3c-0.92-5.65-0.22-8.85,2.2-10.09
		c1.72-0.88,3.71,0.19,5.63,1.23c1.73,0.93,3.52,1.89,4.83,1.26c1.93-0.92,2.48-6.15,1.51-14.37c-0.04-0.31,0.18-0.58,0.48-0.61
		c0.3-0.03,0.58,0.18,0.61,0.48c1.07,9.1,0.35,14.32-2.13,15.51c-1.82,0.86-3.86-0.23-5.83-1.28c-1.75-0.94-3.4-1.83-4.6-1.22
		c-1.22,0.62-2.7,2.22-1.61,8.93c0.05,0.3-0.16,0.58-0.46,0.64C1.7,23.73,1.52,23.66,1.4,23.54z"/>
	<path id="XMLID_5_" class="st0" d="M13.76,16.54c-0.05-0.05-0.08-0.1-0.11-0.17L9.79,7.79c-0.12-0.28,0-0.6,0.28-0.73
		c0.28-0.12,0.6,0,0.73,0.28l3.86,8.59c0.12,0.28,0,0.6-0.28,0.73C14.16,16.74,13.92,16.69,13.76,16.54z"/>
	<path id="XMLID_36_" class="st0" d="M15.24,14.1c-0.05-0.05-0.08-0.1-0.12-0.17l-2.76-6.14c-0.12-0.28,0-0.61,0.28-0.73
		c0.28-0.12,0.61,0,0.74,0.28l2.77,6.14c0.12,0.28,0,0.6-0.28,0.73C15.65,14.31,15.4,14.26,15.24,14.1z"/>
	<path id="XMLID_37_" class="st0" d="M11.1,16.51c-0.05-0.05-0.08-0.1-0.11-0.17L8.22,10.2c-0.12-0.28,0-0.6,0.28-0.73
		c0.28-0.13,0.6,0,0.73,0.27L12,15.89c0.13,0.28,0,0.6-0.28,0.73C11.5,16.73,11.26,16.67,11.1,16.51z"/>
</g>
<path class="st0" d="M4.9,4.03c1.55,0.19,2.58,0.82,2.58,2.09c0,0.9-0.5,1.59-1.26,2.01C5.54,8.51,4.51,8.69,3.4,8.69H0V8.23
	c1.03-0.1,1.15-0.19,1.15-1.33V1.79c0-1.14-0.12-1.23-1.07-1.32V0h3.91c1.03,0,1.7,0.13,2.21,0.47c0.5,0.32,0.79,0.86,0.79,1.53
	c0,1.27-1.12,1.79-2.09,1.98V4.03z M3.22,3.84c1.28,0,1.86-0.51,1.86-1.62c0-1.21-0.72-1.66-1.44-1.66c-0.3,0-0.52,0.08-0.6,0.16
	C2.94,0.82,2.92,1.02,2.92,1.3v2.54C2.92,3.84,3.22,3.84,3.22,3.84z M2.92,6.88c0,0.99,0.27,1.27,0.98,1.26
	c0.75-0.01,1.59-0.56,1.59-1.87c0-1.24-0.78-1.89-2.3-1.89H2.92V6.88z"/>
<path class="st0" d="M24,21.74c-0.11,0.56-0.39,1.9-0.5,2.26h-6.52v-0.47c1.17-0.09,1.3-0.19,1.3-1.31V17.1
	c0-1.15-0.13-1.23-1.15-1.32V15.3h4.09v0.47c-1.03,0.09-1.15,0.17-1.15,1.32v5.22c0,0.63,0.05,0.87,0.33,0.99
	c0.23,0.09,0.59,0.12,1,0.12c0.56,0,1.04-0.09,1.36-0.45c0.25-0.28,0.5-0.71,0.75-1.38L24,21.74z"/>
</svg>
