<?xml version="1.0" encoding="utf-8"?>
<!-- Generator: Adobe Illustrator 25.4.2, SVG Export Plug-In . SVG Version: 6.00 Build 0)  -->
<svg version="1.1" id="Layer_1" xmlns="http://www.w3.org/2000/svg" xmlns:xlink="http://www.w3.org/1999/xlink" x="0px" y="0px"
	 viewBox="0 0 163 102" style="enable-background:new 0 0 163 102;" xml:space="preserve">
<style type="text/css">
	.st0{fill:#FFFFFF;}
	.st1{fill:#FFCF01;}
</style>
<g>
	<path class="st0" d="M0.23,88.46v-13h4.16l1.93,8.84h0.03l2.05-8.84h4.02v13H9.91V78.43H9.88L7.5,88.46H5.04L2.78,78.43H2.74v10.03
		H0.23z"/>
	<path class="st0" d="M15.29,88.46v-13h2.58v13H15.29z"/>
	<path class="st0" d="M20.7,81.96c0-3.44,0-6.72,4.26-6.72c2.63,0,3.69,1.53,3.59,4.32h-2.53c0-1.73-0.29-2.38-1.06-2.38
		c-1.45,0-1.64,1.44-1.64,4.77c0,3.33,0.19,4.77,1.64,4.77c1.2,0,1.15-1.62,1.18-2.65h2.55c0,3.48-1.32,4.59-3.73,4.59
		C20.7,88.68,20.7,85.37,20.7,81.96z"/>
	<path class="st0" d="M36.72,80.67v-5.2h2.58v13h-2.58v-5.8h-2.96v5.8h-2.58v-13h2.58v5.2H36.72z"/>
	<path class="st0" d="M42.31,88.46v-13h2.58v13H42.31z"/>
	<path class="st0" d="M53.48,79.46c0.02-1.21-0.17-2.27-1.54-2.27c-1.61,0-1.61,2.29-1.61,4.81c0,4.07,0.38,4.79,1.85,4.79
		c0.43,0,0.89-0.11,1.28-0.25v-2.88h-1.4v-2h3.99v6.59c-0.7,0.14-2.46,0.43-3.49,0.43c-4.34,0-4.84-1.89-4.84-6.82
		c0-3.28,0.15-6.61,4.38-6.61c2.53,0,4.1,1.49,3.95,4.21H53.48z"/>
	<path class="st0" d="M58.11,88.46l3.42-13h3.4l3.35,13h-2.72l-0.68-2.88h-3.52l-0.7,2.88H58.11z M63.09,77.97h-0.03l-1.18,5.62
		h2.46L63.09,77.97z"/>
	<path class="st0" d="M70.29,88.46v-13h3.49l3.28,9h0.03v-9h2.41v13h-3.4l-3.37-9.51H72.7v9.51H70.29z"/>
	<path class="st0" d="M86.96,88.46v-13h4.16l1.93,8.84h0.03l2.05-8.84h4.02v13h-2.51V78.43h-0.03l-2.38,10.03h-2.46l-2.26-10.03
		h-0.04v10.03H86.96z"/>
	<path class="st0" d="M102.02,88.46v-13h6.74v2h-4.16v3.21h3.83v2h-3.83v3.8h4.29v2H102.02z"/>
	<path class="st0" d="M111.4,75.46h4.31c3.39,0,4.02,2.38,4.02,6.43c0,2,0.29,6.57-4.12,6.57h-4.21V75.46z M113.98,86.46h1.25
		c1.57,0,1.88-1.24,1.88-4.5c0-2.39,0-4.5-1.8-4.5h-1.33V86.46z"/>
	<path class="st0" d="M122.56,88.46v-13h2.58v13H122.56z"/>
	<path class="st0" d="M127.96,81.96c0-3.44,0-6.72,4.26-6.72c2.63,0,3.69,1.53,3.59,4.32h-2.53c0-1.73-0.29-2.38-1.06-2.38
		c-1.45,0-1.64,1.44-1.64,4.77c0,3.33,0.19,4.77,1.64,4.77c1.2,0,1.15-1.62,1.18-2.65h2.55c0,3.48-1.32,4.59-3.73,4.59
		C127.96,88.68,127.96,85.37,127.96,81.96z"/>
	<path class="st0" d="M138.36,88.46v-13h2.58v13H138.36z"/>
	<path class="st0" d="M143.9,88.46v-13h3.49l3.28,9h0.03v-9h2.41v13h-3.4l-3.37-9.51h-0.03v9.51H143.9z"/>
	<path class="st0" d="M156.06,88.46v-13h6.74v2h-4.16v3.21h3.83v2h-3.83v3.8h4.29v2H156.06z"/>
	<path id="XMLID_93_" class="st1" d="M81.37,53.96L62.65,28.39V47h7.44v18.36H35.66V47h6.98V18.4h-6.98V0.02h27.05l18.66,25.75
		l18.66-25.75h27.04V18.4h-6.97V47h6.97v18.36H92.64V47h7.45V28.39L81.37,53.96L81.37,53.96z"/>
	<g>
		<g>
			<path class="st0" d="M19.69,94.93c-0.2,0-0.36,0.02-0.46,0.07c-0.1,0.04-0.18,0.12-0.22,0.24c-0.04,0.11-0.07,0.29-0.09,0.51
				l-0.04,0.77c-0.02,0.52-0.04,1.05-0.06,1.58c-0.02,0.67-0.08,1.18-0.16,1.54c-0.2,0.79-0.58,1.31-1.14,1.56
				c-0.56,0.26-1.1,0.38-1.6,0.38c-0.71,0-1.31-0.16-1.79-0.49c-0.32-0.22-0.55-0.47-0.7-0.76c-0.15-0.29-0.24-0.58-0.28-0.89
				c-0.04-0.31-0.05-0.7-0.05-1.18v-1.56v-0.37c0-0.13,0-0.22-0.01-0.27c0-0.33-0.01-0.53-0.02-0.6c-0.03-0.21-0.1-0.35-0.21-0.42
				c-0.11-0.07-0.3-0.11-0.58-0.13v-0.37h3.1v0.37c-0.34,0.02-0.56,0.06-0.67,0.12c-0.11,0.06-0.18,0.18-0.21,0.36
				c-0.03,0.18-0.04,0.54-0.05,1.08v1.61c0,0.52,0.03,0.95,0.08,1.27c0.05,0.33,0.18,0.63,0.38,0.92c0.26,0.39,0.68,0.58,1.25,0.58
				c0.92,0,1.5-0.44,1.75-1.32c0.14-0.47,0.21-1.35,0.21-2.65c0-0.71-0.01-1.14-0.02-1.29c-0.01-0.2-0.05-0.34-0.13-0.44
				c-0.07-0.09-0.17-0.15-0.28-0.18c-0.12-0.03-0.3-0.05-0.56-0.08v-0.37h2.62v0.37H19.69z"/>
			<path class="st0" d="M23.26,101.43h-2.8v-0.37c0.23-0.01,0.39-0.03,0.49-0.04c0.1-0.01,0.18-0.05,0.24-0.11
				c0.06-0.06,0.1-0.15,0.13-0.27c0.05-0.25,0.1-1.68,0.13-4.29l0.02-0.94c-0.19-0.17-0.35-0.29-0.47-0.35
				c-0.12-0.06-0.3-0.09-0.53-0.11v-0.37h2.06c0.31,0.44,0.55,0.78,0.73,1.01c0.17,0.23,0.5,0.64,0.98,1.24l1.92,2.38v-3.07
				c-0.01-0.4-0.03-0.67-0.06-0.81c-0.04-0.14-0.12-0.24-0.27-0.28c-0.14-0.05-0.41-0.08-0.8-0.09v-0.37h2.7v0.37
				c-0.26,0.01-0.44,0.04-0.55,0.09S27,95.2,26.96,95.37c-0.04,0.17-0.06,0.45-0.06,0.85l-0.09,5.3h-0.41l-0.61-0.76l-0.93-1.16
				l-2.72-3.34v3.55c0,0.39,0.02,0.66,0.07,0.81c0.05,0.15,0.14,0.25,0.27,0.3c0.14,0.05,0.4,0.1,0.78,0.14V101.43z"/>
			<path class="st0" d="M31.46,101.43h-2.83v-0.38c0.24-0.03,0.41-0.07,0.52-0.11c0.11-0.04,0.18-0.12,0.22-0.23
				c0.04-0.11,0.07-0.29,0.07-0.54v-3.65c-0.01-0.53-0.02-0.89-0.05-1.07c-0.02-0.18-0.08-0.3-0.18-0.36
				c-0.1-0.06-0.29-0.12-0.58-0.16v-0.37h2.83v0.37c-0.29,0.03-0.49,0.08-0.58,0.14c-0.1,0.06-0.16,0.18-0.18,0.36
				c-0.02,0.18-0.04,0.54-0.04,1.09v2.77c0,0.6,0.01,1.01,0.03,1.22c0.02,0.2,0.09,0.34,0.2,0.41c0.11,0.07,0.3,0.12,0.58,0.14
				V101.43z"/>
			<path class="st0" d="M38.61,95.11c-0.12,0.08-0.22,0.22-0.32,0.41c-0.1,0.2-0.25,0.55-0.46,1.06l-2.1,4.99h-0.37l-1.87-5.07
				c-0.18-0.5-0.31-0.84-0.4-1.01c-0.08-0.18-0.18-0.3-0.29-0.38c-0.11-0.08-0.29-0.13-0.53-0.17v-0.37h3.26v0.37
				c-0.23,0.01-0.4,0.02-0.52,0.04c-0.12,0.02-0.22,0.06-0.29,0.12c-0.07,0.06-0.11,0.16-0.11,0.28c0,0.09,0.02,0.19,0.04,0.3
				c0.03,0.11,0.09,0.32,0.19,0.63l1.08,3.16l1.28-3.28c0.13-0.4,0.2-0.64,0.2-0.73c0-0.22-0.08-0.36-0.24-0.42
				c-0.16-0.06-0.38-0.09-0.67-0.1v-0.37h2.64v0.37C38.9,94.97,38.73,95.02,38.61,95.11z"/>
			<path class="st0" d="M44.9,101.43h-5.23v-0.38c0.25-0.02,0.43-0.06,0.54-0.1c0.1-0.04,0.18-0.12,0.22-0.23
				c0.04-0.11,0.06-0.29,0.07-0.56c0.01-0.22,0.02-0.61,0.02-1.18v-2.41c0-0.65-0.02-1.07-0.05-1.24c-0.04-0.15-0.11-0.25-0.21-0.29
				c-0.1-0.04-0.29-0.08-0.58-0.1v-0.37h4.9l0.04,1.63h-0.32c-0.05-0.31-0.13-0.53-0.26-0.67c-0.12-0.14-0.29-0.24-0.51-0.28
				c-0.22-0.04-0.54-0.06-0.97-0.06H41.7v2.41h0.75c0.29,0,0.51-0.02,0.66-0.07c0.14-0.05,0.24-0.13,0.3-0.24
				c0.06-0.11,0.1-0.28,0.12-0.5h0.33v2.27h-0.33c0-0.26-0.03-0.45-0.09-0.56c-0.06-0.12-0.17-0.19-0.31-0.23
				c-0.15-0.04-0.37-0.05-0.68-0.05H41.7v1.93c0,0.24,0.08,0.41,0.22,0.52c0.15,0.11,0.44,0.16,0.87,0.16
				c0.45,0,0.78-0.02,0.99-0.05c0.21-0.03,0.4-0.13,0.57-0.29c0.17-0.16,0.29-0.44,0.36-0.82h0.33
				C44.95,100.41,44.9,101,44.9,101.43z"/>
			<path class="st0" d="M47.8,98.35v0.89c0.01,0.6,0.02,1.01,0.04,1.23c0.02,0.22,0.09,0.37,0.2,0.45c0.11,0.08,0.31,0.12,0.59,0.13
				v0.38h-2.87v-0.38c0.26-0.02,0.44-0.05,0.55-0.1c0.11-0.05,0.18-0.13,0.22-0.25c0.04-0.12,0.06-0.31,0.06-0.57
				c0.01-0.19,0.01-0.48,0.01-0.88v-2.48c0-0.7-0.01-1.14-0.04-1.33c-0.02-0.19-0.09-0.31-0.19-0.37c-0.11-0.06-0.31-0.11-0.61-0.14
				v-0.37h3.11c0.79,0,1.36,0.16,1.71,0.49c0.34,0.33,0.52,0.75,0.52,1.28c0,0.37-0.12,0.73-0.35,1.08c-0.23,0.35-0.57,0.6-1,0.73
				l1.22,2.11c0.15,0.27,0.28,0.48,0.4,0.62c0.11,0.14,0.23,0.24,0.36,0.31c0.12,0.07,0.28,0.11,0.47,0.13v0.23
				c-0.19,0.01-0.34,0.02-0.45,0.02c-0.43,0-0.79-0.05-1.07-0.16c-0.28-0.1-0.52-0.27-0.72-0.5c-0.2-0.23-0.39-0.54-0.58-0.95
				L49,99.18c-0.14-0.29-0.25-0.49-0.35-0.6c-0.1-0.11-0.19-0.18-0.29-0.19C48.26,98.37,48.07,98.36,47.8,98.35z M47.8,95.21v2.54
				c0.19,0.05,0.4,0.07,0.64,0.07c0.25,0,0.48-0.06,0.69-0.17c0.21-0.11,0.38-0.26,0.5-0.44c0.13-0.18,0.19-0.36,0.21-0.55
				c0.02-0.44-0.1-0.79-0.36-1.07c-0.26-0.28-0.68-0.41-1.27-0.41C48.06,95.17,47.92,95.18,47.8,95.21z"/>
			<path class="st0" d="M52.53,101.5l-0.15-2.12l0.35-0.04c0.19,0.57,0.45,1,0.79,1.29c0.33,0.29,0.75,0.43,1.26,0.43
				c0.4,0,0.72-0.09,0.98-0.27c0.26-0.18,0.39-0.44,0.39-0.79c0-0.34-0.11-0.6-0.32-0.78c-0.22-0.18-0.47-0.33-0.76-0.45
				c-0.15-0.06-0.29-0.11-0.41-0.15c-0.02-0.01-0.08-0.03-0.18-0.06l-0.24-0.09c-0.44-0.16-0.82-0.38-1.14-0.67
				c-0.32-0.29-0.48-0.72-0.48-1.3c0-0.41,0.1-0.77,0.3-1.07c0.2-0.3,0.46-0.53,0.79-0.69c0.33-0.16,0.7-0.24,1.1-0.24
				c0.57,0,1.09,0.16,1.58,0.47l0.41-0.31L57,96.71l-0.34,0.06c-0.06-0.23-0.12-0.42-0.18-0.55c-0.06-0.13-0.16-0.28-0.29-0.46
				c-0.32-0.42-0.76-0.63-1.34-0.63c-0.36,0-0.64,0.08-0.85,0.24c-0.2,0.16-0.31,0.38-0.31,0.65c0,0.25,0.07,0.46,0.22,0.63
				c0.14,0.17,0.32,0.3,0.53,0.4c0.21,0.1,0.49,0.2,0.83,0.31c0.47,0.15,0.8,0.29,0.99,0.41c0.29,0.17,0.53,0.4,0.71,0.71
				c0.19,0.3,0.28,0.65,0.28,1.04c0,0.4-0.1,0.76-0.31,1.09c-0.2,0.33-0.49,0.59-0.86,0.79c-0.37,0.2-0.79,0.29-1.26,0.29
				c-0.41,0-0.75-0.05-1.02-0.16c-0.27-0.11-0.53-0.24-0.76-0.39L52.53,101.5z"/>
			<path class="st0" d="M60.8,101.43h-2.83v-0.38c0.24-0.03,0.41-0.07,0.52-0.11c0.11-0.04,0.18-0.12,0.22-0.23
				c0.04-0.11,0.07-0.29,0.07-0.54v-3.65c-0.01-0.53-0.02-0.89-0.04-1.07c-0.02-0.18-0.08-0.3-0.18-0.36
				c-0.1-0.06-0.29-0.12-0.58-0.16v-0.37h2.83v0.37c-0.29,0.03-0.49,0.08-0.58,0.14c-0.1,0.06-0.16,0.18-0.18,0.36
				C60.01,95.6,60,95.97,60,96.51v2.77c0,0.6,0.01,1.01,0.03,1.22c0.02,0.2,0.09,0.34,0.2,0.41c0.11,0.07,0.3,0.12,0.58,0.14V101.43
				z"/>
			<path class="st0" d="M67.6,96.49c-0.02-0.37-0.08-0.64-0.18-0.81c-0.1-0.17-0.23-0.27-0.39-0.31c-0.16-0.04-0.39-0.06-0.68-0.06
				h-0.11H65.4v5.05c0,0.28,0.06,0.48,0.17,0.6c0.11,0.12,0.33,0.18,0.64,0.19v0.29h-2.84v-0.29c0.31-0.01,0.52-0.07,0.63-0.19
				c0.12-0.12,0.18-0.32,0.18-0.6V95.3h-0.86h-0.11c-0.29,0-0.52,0.02-0.68,0.06c-0.16,0.04-0.29,0.15-0.39,0.31
				c-0.1,0.17-0.16,0.44-0.18,0.81h-0.36l0.05-1.92h6.25l0.05,1.92H67.6z"/>
			<path class="st0" d="M75.16,95.06c-0.14,0.07-0.29,0.21-0.45,0.41c-0.16,0.2-0.38,0.52-0.66,0.98L73,98.22v1.43
				c0,0.46,0.02,0.78,0.05,0.94c0.03,0.16,0.11,0.28,0.24,0.34c0.13,0.06,0.37,0.1,0.73,0.13v0.37h-3.38v-0.37
				c0.31-0.04,0.52-0.07,0.63-0.09c0.1-0.02,0.19-0.07,0.25-0.13c0.08-0.07,0.12-0.17,0.14-0.29c0.01-0.12,0.03-0.38,0.03-0.79
				v-1.21l-1.83-2.82c-0.19-0.28-0.32-0.46-0.4-0.55c-0.08-0.09-0.17-0.15-0.27-0.18c-0.1-0.03-0.27-0.05-0.51-0.07v-0.38h3.58v0.38
				c-0.4,0.01-0.68,0.04-0.82,0.08c-0.15,0.04-0.22,0.14-0.22,0.29c0,0.08,0.02,0.18,0.07,0.27c0.05,0.1,0.13,0.24,0.23,0.41
				l1.04,1.72L73.54,96c0.18-0.34,0.27-0.57,0.27-0.69c0-0.1-0.03-0.18-0.08-0.23c-0.06-0.05-0.13-0.08-0.22-0.09
				c-0.09-0.02-0.24-0.03-0.45-0.05v-0.38h2.68v0.38C75.5,94.94,75.31,94.98,75.16,95.06z"/>
			<path class="st0" d="M86.41,98.1c0,0.76-0.16,1.42-0.47,1.96c-0.31,0.55-0.73,0.96-1.25,1.24c-0.52,0.28-1.09,0.42-1.71,0.42
				c-0.67,0-1.27-0.15-1.81-0.45c-0.54-0.3-0.97-0.73-1.28-1.28c-0.31-0.55-0.47-1.18-0.47-1.89c0-0.64,0.14-1.23,0.41-1.77
				c0.27-0.54,0.67-0.98,1.19-1.31c0.52-0.33,1.13-0.49,1.84-0.49c0.68,0,1.3,0.15,1.84,0.45c0.54,0.3,0.96,0.73,1.26,1.27
				C86.26,96.79,86.41,97.41,86.41,98.1z M82.98,101.08c0.23-0.01,0.47-0.07,0.71-0.21c0.24-0.13,0.46-0.34,0.65-0.64
				c0.21-0.32,0.36-0.65,0.44-0.97c0.08-0.32,0.12-0.69,0.12-1.1c0-1.07-0.26-1.88-0.77-2.44c-0.37-0.38-0.78-0.57-1.23-0.56
				c-0.44,0-0.85,0.2-1.21,0.6c-0.47,0.53-0.71,1.27-0.71,2.21c0,0.48,0.04,0.9,0.13,1.26c0.09,0.36,0.26,0.71,0.5,1.05
				c0.2,0.29,0.43,0.49,0.67,0.62C82.52,101.01,82.76,101.08,82.98,101.08z"/>
			<path class="st0" d="M87.7,98.99v-2.41c0-0.65-0.02-1.07-0.05-1.24c-0.04-0.15-0.11-0.25-0.21-0.29
				c-0.1-0.04-0.29-0.08-0.58-0.11v-0.37h5.04l0.11,1.68h-0.34c-0.06-0.35-0.15-0.6-0.28-0.74c-0.13-0.15-0.3-0.24-0.52-0.27
				c-0.22-0.03-0.58-0.05-1.09-0.05c-0.37,0-0.66,0.01-0.88,0.04v2.38h0.9c0.31,0,0.53-0.02,0.67-0.05c0.14-0.03,0.24-0.1,0.3-0.22
				c0.06-0.11,0.1-0.29,0.11-0.54h0.33v2.26h-0.33c-0.01-0.25-0.06-0.43-0.16-0.55c-0.09-0.12-0.22-0.2-0.39-0.23
				c-0.17-0.04-0.39-0.05-0.68-0.05H88.9v1.96c0.01,0.26,0.03,0.44,0.06,0.55c0.04,0.11,0.11,0.19,0.21,0.23s0.28,0.08,0.54,0.1
				v0.38h-2.84v-0.38c0.26-0.02,0.44-0.06,0.54-0.1c0.1-0.04,0.17-0.12,0.21-0.23c0.04-0.11,0.06-0.3,0.07-0.55
				C87.7,99.94,87.7,99.55,87.7,98.99z"/>
			<path class="st0" d="M104.67,101.43h-3.01v-0.37c0.31-0.02,0.52-0.05,0.63-0.1c0.11-0.05,0.17-0.16,0.2-0.31
				c0.02-0.16,0.04-0.48,0.04-0.95v-3.45l-2.39,5.27h-0.6l-2.21-5.35l-0.05,4.03c0,0.24,0.02,0.41,0.05,0.52
				c0.04,0.11,0.11,0.19,0.22,0.23c0.11,0.05,0.29,0.08,0.54,0.1v0.37H95.7v-0.37c0.29-0.01,0.5-0.05,0.61-0.13
				c0.11-0.07,0.18-0.22,0.2-0.44c0.02-0.25,0.04-0.63,0.05-1.14l0.1-2.87c0.01-0.15,0.01-0.42,0.01-0.8c0-0.23-0.02-0.4-0.06-0.5
				c-0.04-0.1-0.11-0.16-0.2-0.19c-0.1-0.03-0.26-0.04-0.49-0.05v-0.37h2.16l2.13,5.21l2.36-5.21h2.09v0.4
				c-0.29,0.02-0.48,0.05-0.59,0.1c-0.1,0.05-0.17,0.15-0.2,0.29c-0.03,0.14-0.04,0.41-0.03,0.81v2.83c0,0.62,0.01,1.09,0.04,1.4
				c0.02,0.25,0.09,0.41,0.19,0.49c0.11,0.08,0.3,0.13,0.59,0.16V101.43z"/>
			<path class="st0" d="M108.49,101.43h-2.83v-0.38c0.24-0.03,0.41-0.07,0.52-0.11c0.11-0.04,0.18-0.12,0.22-0.23
				c0.04-0.11,0.07-0.29,0.07-0.54v-3.65c-0.01-0.53-0.02-0.89-0.04-1.07c-0.02-0.18-0.08-0.3-0.18-0.36
				c-0.1-0.06-0.29-0.12-0.58-0.16v-0.37h2.83v0.37c-0.29,0.03-0.49,0.08-0.58,0.14c-0.1,0.06-0.16,0.18-0.18,0.36
				c-0.02,0.18-0.04,0.54-0.04,1.09v2.77c0,0.6,0.01,1.01,0.03,1.22c0.02,0.2,0.09,0.34,0.2,0.41c0.11,0.07,0.3,0.12,0.58,0.14
				V101.43z"/>
			<path class="st0" d="M115.14,99.71l0.41,0.31c-0.16,0.27-0.35,0.52-0.56,0.76c-0.21,0.24-0.51,0.45-0.91,0.65
				c-0.4,0.2-0.88,0.3-1.46,0.3c-0.68,0-1.28-0.15-1.79-0.46c-0.52-0.31-0.92-0.73-1.2-1.26c-0.28-0.54-0.42-1.14-0.42-1.8
				c0-0.64,0.13-1.24,0.39-1.8c0.26-0.56,0.65-1.01,1.17-1.36c0.52-0.34,1.15-0.52,1.89-0.52c0.37,0,0.7,0.04,0.99,0.13
				c0.29,0.09,0.52,0.18,0.7,0.29c0.18,0.11,0.37,0.24,0.58,0.4l0.47-0.43l0.04,2.08l-0.31,0.06c-0.06-0.2-0.14-0.4-0.25-0.58
				c-0.11-0.18-0.27-0.39-0.49-0.63c-0.16-0.17-0.36-0.32-0.6-0.46c-0.24-0.14-0.52-0.21-0.84-0.21c-0.41,0-0.79,0.11-1.12,0.33
				c-0.34,0.22-0.6,0.54-0.8,0.96c-0.19,0.42-0.29,0.92-0.29,1.49c0,0.52,0.09,1.01,0.27,1.45c0.18,0.45,0.45,0.81,0.81,1.08
				c0.36,0.27,0.79,0.41,1.3,0.41c0.37,0,0.68-0.06,0.93-0.18c0.25-0.12,0.46-0.25,0.6-0.41
				C114.81,100.16,114.97,99.95,115.14,99.71z"/>
			<path class="st0" d="M119.29,101.43h-2.93v-0.37c0.26-0.02,0.44-0.06,0.55-0.11c0.11-0.06,0.18-0.14,0.2-0.24
				c0.03-0.1,0.04-0.28,0.04-0.54c0.01-0.16,0.01-0.41,0.01-0.73v-2.88c0-0.59-0.01-0.96-0.04-1.11c-0.02-0.19-0.08-0.32-0.18-0.38
				c-0.1-0.06-0.3-0.11-0.58-0.13v-0.37h2.93v0.37c-0.23,0.02-0.39,0.05-0.5,0.07c-0.1,0.02-0.18,0.06-0.24,0.12
				c-0.06,0.06-0.1,0.15-0.12,0.27c-0.04,0.17-0.05,0.55-0.05,1.13v0.94c0.59,0.04,1.11,0.05,1.58,0.05c0.5,0,1.05-0.02,1.63-0.05
				v-1.15c-0.01-0.46-0.02-0.77-0.05-0.93c-0.03-0.16-0.1-0.27-0.22-0.32c-0.12-0.06-0.34-0.1-0.68-0.13v-0.37h2.98v0.37
				c-0.29,0.04-0.49,0.08-0.58,0.13c-0.1,0.05-0.16,0.16-0.18,0.31c-0.02,0.16-0.04,0.48-0.04,0.96v2.9c0,0.67,0.01,1.12,0.04,1.34
				c0.02,0.17,0.09,0.29,0.19,0.35c0.1,0.06,0.29,0.1,0.56,0.13v0.37h-2.98v-0.37c0.26-0.03,0.45-0.06,0.57-0.09
				c0.11-0.03,0.2-0.07,0.25-0.14c0.05-0.07,0.09-0.18,0.12-0.34c0.01-0.13,0.02-0.45,0.02-0.95v-1.26l-0.54-0.03l-0.32-0.01
				c-0.3-0.01-0.53-0.02-0.69-0.02c-0.41,0-0.88,0.02-1.4,0.04l-0.24,0.01v1.26c0.01,0.52,0.02,0.86,0.05,1.04
				c0.03,0.18,0.1,0.29,0.2,0.35c0.1,0.05,0.32,0.1,0.65,0.13V101.43z"/>
			<path class="st0" d="M127.44,101.43h-2.83v-0.38c0.24-0.03,0.41-0.07,0.52-0.11c0.11-0.04,0.18-0.12,0.22-0.23
				c0.04-0.11,0.07-0.29,0.07-0.54v-3.65c-0.01-0.53-0.02-0.89-0.05-1.07c-0.02-0.18-0.08-0.3-0.18-0.36
				c-0.1-0.06-0.29-0.12-0.58-0.16v-0.37h2.83v0.37c-0.29,0.03-0.49,0.08-0.58,0.14c-0.1,0.06-0.16,0.18-0.18,0.36
				c-0.02,0.18-0.04,0.54-0.04,1.09v2.77c0,0.6,0.01,1.01,0.03,1.22c0.02,0.2,0.09,0.34,0.2,0.41c0.11,0.07,0.3,0.12,0.58,0.14
				V101.43z"/>
			<path class="st0" d="M132.08,98.51h2.76v0.37c-0.22,0.01-0.36,0.05-0.45,0.13c-0.08,0.07-0.13,0.2-0.15,0.38
				c-0.02,0.18-0.03,0.52-0.04,1.02v0.51c-0.26,0.16-0.5,0.3-0.72,0.41c-0.22,0.11-0.49,0.2-0.81,0.28
				c-0.33,0.08-0.7,0.12-1.11,0.12c-0.75,0-1.39-0.17-1.91-0.51c-0.53-0.34-0.92-0.78-1.18-1.33c-0.26-0.55-0.4-1.13-0.4-1.75
				c0-0.71,0.15-1.35,0.45-1.89c0.3-0.55,0.7-0.98,1.21-1.28c0.51-0.3,1.08-0.45,1.7-0.45c0.36,0,0.68,0.04,0.97,0.11
				c0.29,0.08,0.53,0.16,0.72,0.27c0.2,0.1,0.43,0.24,0.71,0.4l0.36-0.41l0.05,2.15l-0.28,0.04c-0.2-0.55-0.49-1.02-0.87-1.4
				c-0.34-0.34-0.79-0.5-1.35-0.5c-0.41,0-0.78,0.11-1.11,0.34c-0.33,0.23-0.6,0.57-0.79,1.01c-0.19,0.45-0.29,0.99-0.29,1.62
				c0,0.53,0.08,1.02,0.25,1.47c0.17,0.44,0.41,0.8,0.73,1.06c0.32,0.26,0.7,0.4,1.13,0.4c0.49,0,0.88-0.19,1.19-0.58
				c0.06-0.09,0.1-0.18,0.12-0.27c0.02-0.09,0.03-0.22,0.02-0.37c-0.01-0.3-0.04-0.51-0.09-0.63c-0.04-0.12-0.12-0.2-0.23-0.24
				c-0.11-0.04-0.31-0.07-0.59-0.1V98.51z"/>
			<path class="st0" d="M142.48,101.43h-3.21v-0.37c0.29-0.02,0.5-0.06,0.63-0.12c0.13-0.05,0.2-0.17,0.2-0.33
				c0-0.1-0.02-0.24-0.07-0.41l-0.21-0.7h-2.42l-0.22,0.59c-0.05,0.17-0.08,0.31-0.08,0.42c0,0.22,0.08,0.36,0.24,0.42
				c0.16,0.06,0.39,0.1,0.68,0.12v0.37h-2.83v-0.37c0.25-0.01,0.45-0.04,0.59-0.09c0.14-0.05,0.26-0.14,0.35-0.26
				c0.09-0.12,0.18-0.3,0.27-0.55l1.85-5.09l-0.11-0.16c0.39-0.13,0.67-0.23,0.84-0.31c0.17-0.08,0.35-0.19,0.53-0.32
				c0.08,0.29,0.19,0.62,0.31,1.01l1.52,4.66c0.1,0.3,0.18,0.52,0.26,0.66c0.08,0.14,0.18,0.24,0.31,0.31
				c0.13,0.07,0.31,0.11,0.56,0.14V101.43z M139.62,98.76l-0.96-2.85l-1.01,2.85H139.62z"/>
			<path class="st0" d="M145.82,101.43h-2.8v-0.37c0.23-0.01,0.39-0.03,0.49-0.04c0.1-0.01,0.18-0.05,0.24-0.11
				c0.06-0.06,0.1-0.15,0.13-0.27c0.05-0.25,0.1-1.68,0.13-4.29l0.02-0.94c-0.19-0.17-0.35-0.29-0.47-0.35
				c-0.12-0.06-0.3-0.09-0.53-0.11v-0.37h2.06c0.31,0.44,0.55,0.78,0.73,1.01c0.17,0.23,0.5,0.64,0.98,1.24l1.92,2.38v-3.07
				c-0.01-0.4-0.03-0.67-0.06-0.81c-0.04-0.14-0.12-0.24-0.27-0.28c-0.14-0.05-0.41-0.08-0.8-0.09v-0.37h2.7v0.37
				c-0.26,0.01-0.44,0.04-0.55,0.09c-0.11,0.06-0.18,0.17-0.22,0.33s-0.06,0.45-0.06,0.85l-0.09,5.3h-0.41l-0.61-0.76l-0.93-1.16
				l-2.72-3.34v3.55c0,0.39,0.02,0.66,0.07,0.81c0.04,0.15,0.14,0.25,0.27,0.3c0.14,0.05,0.4,0.1,0.78,0.14V101.43z"/>
		</g>
	</g>
</g>
</svg>
